<?xml version="1.0" encoding="UTF-8" standalone="no"?>
<svg
   xmlns:dc="http://purl.org/dc/elements/1.1/"
   xmlns:cc="http://creativecommons.org/ns#"
   xmlns:rdf="http://www.w3.org/1999/02/22-rdf-syntax-ns#"
   xmlns:svg="http://www.w3.org/2000/svg"
   xmlns="http://www.w3.org/2000/svg"
   xmlns:sodipodi="http://sodipodi.sourceforge.net/DTD/sodipodi-0.dtd"
   xmlns:inkscape="http://www.inkscape.org/namespaces/inkscape"
   width="210mm"
   height="297mm"
   viewBox="0 0 210 297"
   version="1.1"
   id="svg8"
   inkscape:version="1.0.2 (e86c870879, 2021-01-15)"
   sodipodi:docname="drawing.svg">
  <defs
     id="defs2" />
  <sodipodi:namedview
     id="base"
     pagecolor="#ffffff"
     bordercolor="#666666"
     borderopacity="1.0"
     inkscape:pageopacity="0.0"
     inkscape:pageshadow="2"
     inkscape:zoom="2.8"
     inkscape:cx="290.09171"
     inkscape:cy="370.35076"
     inkscape:document-units="mm"
     inkscape:current-layer="layer1"
     inkscape:document-rotation="0"
     showgrid="false"
     inkscape:window-width="1920"
     inkscape:window-height="1016"
     inkscape:window-x="0"
     inkscape:window-y="27"
     inkscape:window-maximized="1" />
  <metadata
     id="metadata5">
    <rdf:RDF>
      <cc:Work
         rdf:about="">
        <dc:format>image/svg+xml</dc:format>
        <dc:type
           rdf:resource="http://purl.org/dc/dcmitype/StillImage" />
        <dc:title></dc:title>
      </cc:Work>
    </rdf:RDF>
  </metadata>
  <g
     inkscape:label="Layer 1"
     inkscape:groupmode="layer"
     id="layer1">
    <path
       style="fill:none;stroke:#000000;stroke-width:0.111759px;stroke-linecap:butt;stroke-linejoin:miter;stroke-opacity:1"
       d="m 73.676311,90.436309 v 4.590283"
       id="path855"
       sodipodi:nodetypes="cc" />
    <path
       style="fill:none;stroke:#000000;stroke-width:0.501;stroke-linecap:butt;stroke-linejoin:miter;stroke-opacity:1;stroke-miterlimit:4;stroke-dasharray:none"
       d="M 73.896572,92.694555 H 109.9025"
       id="path877" />
    <path
       style="fill:none;stroke:#000000;stroke-width:0.0963346px;stroke-linecap:butt;stroke-linejoin:miter;stroke-opacity:1"
       d="m 73.676311,90.436309 h 3.410667"
       id="path855-5"
       sodipodi:nodetypes="cc" />
    <path
       style="fill:none;stroke:#000000;stroke-width:0.0963346px;stroke-linecap:butt;stroke-linejoin:miter;stroke-opacity:1"
       d="m 73.676311,95.026592 h 3.410667"
       id="path855-5-3"
       sodipodi:nodetypes="cc" />
    <path
       style="fill:none;stroke:#000000;stroke-width:0.111759px;stroke-linecap:butt;stroke-linejoin:miter;stroke-opacity:1"
       d="M 109.92198,95.026592 V 90.436309"
       id="path855-56"
       sodipodi:nodetypes="cc" />
    <path
       style="fill:none;stroke:#000000;stroke-width:0.0963346px;stroke-linecap:butt;stroke-linejoin:miter;stroke-opacity:1"
       d="m 109.92198,95.026592 h -3.41067"
       id="path855-5-2"
       sodipodi:nodetypes="cc" />
    <path
       style="fill:none;stroke:#000000;stroke-width:0.0963346px;stroke-linecap:butt;stroke-linejoin:miter;stroke-opacity:1"
       d="m 109.92198,90.436309 h -3.41067"
       id="path855-5-3-9"
       sodipodi:nodetypes="cc" />
    <path
       style="fill:none;stroke:#7c7c7c;stroke-width:0.562;stroke-linecap:butt;stroke-linejoin:miter;stroke-opacity:1;stroke-miterlimit:4;stroke-dasharray:none"
       d="M 73.876499,69.298777 H 60.613513 V 92.74064"
       id="path969" />
    <path
       style="fill:none;stroke:#7c7c7c;stroke-width:0.562;stroke-linecap:butt;stroke-linejoin:miter;stroke-opacity:1;stroke-miterlimit:4;stroke-dasharray:none"
       d="m 109.89467,69.298777 h 13.26299 V 92.74064"
       id="path969-1" />
    <path
       style="fill:none;stroke:#000000;stroke-width:0.822;stroke-linecap:butt;stroke-linejoin:miter;stroke-opacity:1;stroke-miterlimit:4;stroke-dasharray:none"
       d="M 33.756597,92.786176 H 60.631866 L 73.876496,69.298777 H 91.885574"
       id="path833" />
    <path
       style="fill:none;stroke:#000000;stroke-width:0.822;stroke-linecap:butt;stroke-linejoin:miter;stroke-opacity:1;stroke-miterlimit:4;stroke-dasharray:none"
       d="M 150.01457,92.786176 H 123.13928 L 109.89467,69.298777 H 91.885574"
       id="path833-3" />
    <text
       xml:space="preserve"
       style="font-size:8.62605px;line-height:1.25;font-family:'CMU Classical Serif';-inkscape-font-specification:'CMU Classical Serif';stroke-width:0.215652"
       x="89.162704"
       y="102.51292"
       id="text993"><tspan
         sodipodi:role="line"
         id="tspan991"
         x="89.162704"
         y="102.51292"
         style="font-style:normal;font-variant:normal;font-weight:normal;font-stretch:normal;font-family:STIX;-inkscape-font-specification:STIX;stroke-width:0.215652">F</tspan></text>
    <path
       style="fill:none;stroke:#000000;stroke-width:0.264583;stroke-linecap:butt;stroke-linejoin:miter;stroke-miterlimit:4;stroke-dasharray:0.264583, 0.529166;stroke-dashoffset:0;stroke-opacity:1"
       d="M 73.676311,70.388788 V 90.436309"
       id="path995" />
    <path
       style="fill:none;stroke:#000000;stroke-width:0.264583;stroke-linecap:butt;stroke-linejoin:miter;stroke-miterlimit:4;stroke-dasharray:0.264583, 0.529166;stroke-dashoffset:0;stroke-opacity:1"
       d="M 109.92198,70.388788 V 90.436309"
       id="path995-6" />
    <text
       xml:space="preserve"
       style="font-size:6.16695px;line-height:1.25;font-family:'CMU Classical Serif';-inkscape-font-specification:'CMU Classical Serif';stroke-width:0.154174"
       x="141.80724"
       y="90.964958"
       id="text1019"><tspan
         sodipodi:role="line"
         id="tspan1017"
         x="141.80724"
         y="90.964958"
         style="font-style:normal;font-variant:normal;font-weight:normal;font-stretch:normal;font-family:STIXGeneral;-inkscape-font-specification:STIXGeneral;stroke-width:0.154174">f(x)</tspan></text>
    <g
       id="g1072"
       transform="matrix(1,0,0,0.60765293,0,36.378184)">
      <path
         style="fill:none;stroke:#000000;stroke-width:0.22729px;stroke-linecap:butt;stroke-linejoin:miter;stroke-opacity:1"
         d="m 73.87253,92.695094 c 0,0 0.420702,-2.293219 1.058002,-2.199686 1.178866,0.173015 0.09921,4.469299 1.283547,4.544536 1.124014,0.0714 0.291248,-4.12964 1.504276,-4.140116 0.965673,-0.0083 0.05903,3.981137 1.108593,4.0416 1.042214,0.06004 0.258639,-3.916964 1.342864,-3.872516 1.299371,0.05327 0.288644,4.172206 1.375567,4.06344 1.284256,-0.128512 -0.188784,-5.091903 1.098826,-5.073764 1.246167,0.01756 -0.24787,4.736451 0.989529,4.939384 1.06481,0.174628 0.488858,-3.933364 1.559745,-3.855008 0.894687,0.06547 0.149578,3.420697 1.045305,3.392554"
         id="path1023"
         sodipodi:nodetypes="caasasaaccc" />
      <path
         style="fill:none;stroke:#000000;stroke-width:0.22729px;stroke-linecap:butt;stroke-linejoin:miter;stroke-opacity:1"
         d="m 97.550942,92.987288 c 0,0 -0.420701,2.293219 -1.058002,2.199686 -1.178866,-0.173015 -0.09921,-4.469299 -1.283547,-4.544536 -1.124014,-0.0714 -0.291248,4.12964 -1.504276,4.140116 -0.965673,0.0083 -0.05903,-3.981137 -1.108593,-4.0416 -1.042214,-0.06004 -0.258639,3.916964 -1.342864,3.872516 -1.299371,-0.05327 -0.288644,-4.172206 -1.375567,-4.06344 -1.284256,0.128512 0.188784,5.091903 -1.098826,5.073764 -1.246167,-0.01756 0.24787,-4.736451 -0.989529,-4.939384 -1.06481,-0.174628 -0.488858,3.933364 -1.559745,3.855008 -0.894687,-0.06547 -0.149578,-3.420697 -1.045305,-3.392554"
         id="path1023-5"
         sodipodi:nodetypes="caasasaaccc" />
      <path
         style="fill:none;stroke:#000000;stroke-width:0.22729px;stroke-linecap:butt;stroke-linejoin:miter;stroke-opacity:1"
         d="m 97.550942,92.987288 c 0,0 0.420702,-2.293219 1.058002,-2.199686 1.178866,0.173015 0.09921,4.469299 1.283547,4.544536 1.124019,0.0714 0.291249,-4.12964 1.504279,-4.140116 0.96567,-0.0083 0.059,3.981137 1.10859,4.0416 1.04221,0.06004 0.25864,-3.916964 1.34286,-3.872516 1.29938,0.05327 0.28865,4.172206 1.37557,4.06344 1.28425,-0.128512 -0.18879,-5.091903 1.09883,-5.073764 1.24616,0.01756 -0.24787,4.736451 0.98952,4.939384 1.06482,0.174628 0.48887,-3.933364 1.55975,-3.855008 0.89469,0.06547 0.14958,3.420697 1.04531,3.392554"
         id="path1023-7"
         sodipodi:nodetypes="caasasaaccc" />
    </g>
  </g>
</svg>
